<?xml version="1.0" encoding="UTF-8"?>
<!DOCTYPE svg PUBLIC "-//W3C//DTD SVG 1.1//EN" "http://www.w3.org/Graphics/SVG/1.1/DTD/svg11.dtd">
<!-- Creator: CorelDRAW X6 -->
<svg xmlns="http://www.w3.org/2000/svg" xml:space="preserve" width="60mm" height="60mm" version="1.1" style="shape-rendering:geometricPrecision; text-rendering:geometricPrecision; image-rendering:optimizeQuality; fill-rule:evenodd; clip-rule:evenodd"
viewBox="0 0 60000 60000"
 xmlns:xlink="http://www.w3.org/1999/xlink">
 <defs>
  <style type="text/css">
   <![CDATA[
    .fil0 {fill:white}
   ]]>
  </style>
 </defs>
 <g id="Ebene_x0020_1">
  <metadata id="CorelCorpID_0Corel-Layer"/>
  <path class="fil0" d="M30000 24500c3038,0 5500,2463 5500,5500 0,3038 -2462,5500 -5500,5500 -3037,0 -5500,-2462 -5500,-5500 0,-3037 2463,-5500 5500,-5500zm19046 17483c-3984,6318 -11024,10517 -19046,10517 -8022,0 -15062,-4199 -19046,-10517 4586,3987 11416,6517 19046,6517 7630,0 14460,-2530 19046,-6517zm-19046 -15983c2209,0 4000,1791 4000,4000 0,2209 -1791,4000 -4000,4000 -2209,0 -4000,-1791 -4000,-4000 0,-2209 1791,-4000 4000,-4000zm0 1000c1657,0 3000,1343 3000,3000 0,1657 -1343,3000 -3000,3000 -1657,0 -3000,-1343 -3000,-3000 0,-1657 1343,-3000 3000,-3000zm22827 13209c-3905,8717 -12656,14791 -22827,14791 -13134,0 -23901,-10128 -24920,-23000l17172 0c888,3450 4020,6000 7748,6000l20750 0c2762,0 5000,-2238 5000,-5000 0,-2761 -2238,-5000 -5000,-5000l-13002 0c-888,-3450 -4020,-6000 -7748,-6000 -3728,0 -6860,2550 -7748,6000l-17172 0c1019,-12872 11786,-23000 24920,-23000 12679,0 23151,9439 24778,21673 2088,1331 3472,3667 3472,6327 0,3422 -2291,6308 -5423,7209zm-2077 -14709c450,0 891,40 1320,116 -2040,-10327 -11144,-18116 -22070,-18116 -10885,0 -19965,7730 -22049,18000l12560 0c1685,-3547 5301,-6000 9489,-6000 4188,0 7804,2453 9489,6000l11261 0zm0 3500c2209,0 4000,1791 4000,4000 0,2209 -1791,4000 -4000,4000 -2209,0 -4000,-1791 -4000,-4000 0,-2209 1791,-4000 4000,-4000zm0 1500c1381,0 2500,1119 2500,2500 0,1381 -1119,2500 -2500,2500 -1381,0 -2500,-1119 -2500,-2500 0,-1381 1119,-2500 2500,-2500zm-9000 3250l2386 0c-319,1014 -1266,1750 -2386,1750 -1381,0 -2500,-1119 -2500,-2500 0,-1381 1119,-2500 2500,-2500 663,0 1299,263 1768,732l1061 -1060c-751,-750 -1768,-1172 -2829,-1172 -2209,0 -4000,1791 -4000,4000 0,2209 1791,4000 4000,4000 2209,0 4000,-1791 4000,-4000 0,-252 -24,-503 -71,-750l-3929 0 0 1500z"/>
 </g>
</svg>
